<?xml version="1.0" standalone="no"?>
<!DOCTYPE svg PUBLIC "-//W3C//DTD SVG 1.1//EN" "http://www.w3.org/Graphics/SVG/1.1/DTD/svg11.dtd" >
<svg xmlns="http://www.w3.org/2000/svg">
<metadata>Generated by IcoMoon</metadata>
<defs>
<font id="icomoon" horiz-adv-x="1024">
<font-face units-per-em="1024" ascent="960" descent="-64" />
<missing-glyph horiz-adv-x="1024" />
<glyph unicode="&#x20;" horiz-adv-x="512" d="" />
<glyph unicode="&#xe916;" glyph-name="circle-hose-tree" d="M524.638 2.452c-246.096 0-446.307 200.21-446.307 446.302 0 246.096 200.21 446.307 446.307 446.307 246.101 0 446.312-200.21 446.312-446.307-0.001-246.092-200.212-446.302-446.312-446.302zM524.638 868.252c-231.308 0-419.502-188.191-419.502-419.498 0-231.308 188.186-419.499 419.502-419.499 231.308 0 419.497 188.19 419.497 419.499 0 231.308-188.19 419.498-419.497 419.498zM687.723 274.729h-361.925v220.676l180.956 152.819 93.548-78.985-17.306-20.494-76.242 64.387-154.16-130.173v-181.408h308.325v114.682h26.804zM674.321 402.831c-53.884 0-96.075 71.581-96.075 162.959 0 91.387 42.191 162.959 96.075 162.959 53.868 0 96.067-71.572 96.067-162.959 0.001-91.378-42.199-162.959-96.067-162.959zM674.321 701.954c-37.555 0-69.256-62.351-69.256-136.156s31.717-136.156 69.256-136.156 69.255 62.343 69.255 136.156c0 73.797-31.716 136.156-69.255 136.156zM660.919 416.233h26.804v-128.102h-26.804v128.102zM367.684 602.423h26.809v-77.863h-26.809v77.863zM616.924 462.271l-15.086 22.167 72.483 49.299 72.46-49.299-15.078-22.167-57.382 39.038zM597.991 531.907l-12.671 23.616 88.53 47.567 88.537-47.567-12.695-23.616-75.842 40.756zM563.836 274.747h-114.158v163.411h114.158v-163.411zM476.486 301.551h60.545v109.803h-60.545v-109.803z" />
<glyph unicode="&#xe917;" glyph-name="circle-house" d="M509.735 2.452c-246.092 0-446.294 200.21-446.294 446.302 0 246.096 200.202 446.307 446.294 446.307 246.097 0 446.307-200.21 446.307-446.307 0-246.092-200.21-446.302-446.307-446.302zM509.735 868.252c-231.304 0-419.498-188.191-419.498-419.498 0-231.308 188.194-419.499 419.498-419.499 231.312 0 419.502 188.19 419.502 419.499 0 231.308-188.19 419.498-419.502 419.498zM672.808 274.729h-361.925v220.676l180.965 152.819 93.538-78.994-17.297-20.477-76.241 64.379-154.156-130.173v-181.408h308.329v114.682h26.787zM659.415 402.831c-53.878 0-96.075 71.581-96.075 162.959 0 91.387 42.197 162.959 96.075 162.959 53.869 0 96.066-71.572 96.066-162.959 0-91.378-42.197-162.959-96.066-162.959zM659.415 701.954c-37.539 0-69.264-62.351-69.264-136.156s31.732-136.156 69.264-136.156c37.53 0 69.264 62.343 69.264 136.156 0 73.797-31.725 136.156-69.264 136.156zM646.005 416.233h26.82v-128.102h-26.82v128.102zM352.777 602.423h26.808v-77.863h-26.808v77.863z" />
<glyph unicode="&#xe918;" glyph-name="circle-map" d="M513.041 2.452c-246.092 0-446.303 200.21-446.303 446.302 0 246.096 200.21 446.307 446.303 446.307 246.1 0 446.303-200.21 446.303-446.307 0-246.092-200.203-446.302-446.303-446.302zM513.041 868.252c-231.304 0-419.498-188.191-419.498-419.498 0-231.308 188.194-419.499 419.498-419.499 231.309 0 419.497 188.19 419.497 419.499 0 231.308-188.188 419.498-419.497 419.498zM513.041 196.033c-6.12 0-12.133 2.123-16.936 5.97-102.004 81.893-148.837 158.923-170.148 209.123-5.855 12.63-10.487 26.284-13.609 40.21-0.939 4.184-1.379 6.632-1.497 7.437-2.326 11.841-3.558 24.852-3.558 38.030 0 113.39 92.253 205.643 205.651 205.643 113.282 0 205.634-92.237 205.838-205.623 0-12.625-1.214-25.6-3.636-38.575-0.018-0.183-0.472-2.672-1.416-6.913-3.073-13.829-7.726-27.507-13.776-40.601-21.119-49.761-67.92-126.718-169.966-208.725-4.813-3.853-10.824-5.976-16.947-5.976zM512.944 675.638c-98.609 0-178.843-80.225-178.843-178.834 0-11.466 1.065-22.75 3.171-33.533 0.207-1.305 0.565-3.099 1.232-6.071 2.708-12.073 6.73-23.921 11.958-35.209 20.278-47.753 64.762-120.683 162.419-199.079 98.015 78.526 142.474 151.392 162.562 198.689 5.431 11.759 9.465 23.6 12.116 35.591 0.65 2.899 1.008 4.672 1.122 5.396 2.222 11.926 3.294 23.25 3.294 34.22-0.186 98.596-80.499 178.83-179.031 178.83zM512.944 359.217c-74.7 0-135.473 60.773-135.473 135.472 0 74.692 60.772 135.465 135.473 135.465 74.687 0 135.459-60.773 135.459-135.465 0-74.699-60.772-135.472-135.459-135.472zM512.944 603.35c-59.92 0-108.669-48.753-108.669-108.661 0-59.922 48.749-108.66 108.669-108.66 59.902 0 108.646 48.746 108.646 108.66 0.001 59.908-48.743 108.661-108.646 108.661z" />
<glyph unicode="&#xe919;" glyph-name="circle-star" d="M512.65 2.452c-246.092 0-446.294 200.21-446.294 446.302 0 246.096 200.189 446.307 446.294 446.307 246.101 0 446.304-200.21 446.304-446.307 0-246.092-200.211-446.302-446.304-446.302zM512.65 868.252c-231.304 0-419.49-188.191-419.49-419.498 0-231.308 188.186-419.499 419.49-419.499 231.316 0 419.498 188.19 419.498 419.499-0.007 231.308-188.198 419.498-419.498 419.498zM635.872 278.999l-123.229 64.791-123.213-64.791-19.453 14.11 23.523 137.233-99.686 97.182 7.424 22.86 137.782 20.030 61.607 124.835h24.043l61.602-124.835 137.777-20.030 7.442-22.86-99.702-97.182 23.526-137.232-19.443-14.111zM518.888 370.79l105.429-55.423-20.136 117.391 3.854 11.873 85.3 83.137-117.886 17.123-10.086 7.335-52.721 106.797-52.706-106.797-10.092-7.335-117.874-17.123 85.296-83.137 3.854-11.873-20.136-117.391 105.419 55.423h12.485z" />
<glyph unicode="&#xe91a;" glyph-name="circle-arrow-left-down" d="M668.457 284.311l-308.491 6.683-6.705 308.513 26.824 0.578 6.112-282.83 282.838-6.14zM659.261 609.254l18.947-18.957-295.699-295.626-18.952 18.965zM517.709 2.452c-246.097 0-446.306 200.21-446.306 446.302 0 246.096 200.209 446.307 446.306 446.307 246.093 0 446.303-200.21 446.303-446.307 0-246.092-200.21-446.302-446.303-446.302zM517.709 868.252c-231.316 0-419.502-188.191-419.502-419.498 0-231.308 188.187-419.499 419.502-419.499 231.3 0 419.498 188.19 419.498 419.499 0 231.308-188.19 419.498-419.498 419.498z" />
<glyph unicode="&#xe91b;" glyph-name="circle-envelope" d="M509.495 2.452c-246.096 0-446.298 200.21-446.298 446.302 0 246.096 200.202 446.307 446.298 446.307 246.093 0 446.303-200.21 446.303-446.307 0-246.092-200.21-446.302-446.303-446.302zM509.495 868.252c-231.303 0-419.489-188.191-419.489-419.498 0-231.308 188.187-419.499 419.489-419.499 231.3 0 419.499 188.19 419.499 419.499-0.009 231.308-188.199 419.498-419.499 419.498zM766.639 285.4h-521.311l-13.397 13.41v300.864l13.397 13.411h521.311l13.403-13.411v-300.863l-13.403-13.411zM258.735 312.204h494.502v274.064h-494.502v-274.064zM512.691 437.629h-13.398l-260.669 150.428 13.418 23.226 253.94-146.565 253.941 146.565 13.419-23.226z" />
<glyph unicode="&#xe91c;" glyph-name="circle-instagram" d="M509.495-7.12c-246.096 0-446.298 200.218-446.298 446.303 0 246.108 200.202 446.31 446.298 446.31 246.093 0 446.303-200.202 446.303-446.31 0-246.085-200.21-446.303-446.303-446.303zM509.495 858.676c-231.303 0-419.489-188.185-419.489-419.493s188.187-419.499 419.489-419.499c231.3 0 419.499 188.19 419.499 419.499-0.009 231.308-188.199 419.493-419.499 419.493zM505.953 514.203c40.902 0 74.065-33.164 74.065-74.063 0-40.904-33.163-74.077-74.065-74.077s-74.064 33.157-74.064 74.077c0 40.912 33.163 74.063 74.064 74.063zM681.624 612.95c-21.843 21.844-52.226 35.132-88.317 35.132h-172.808c-74.065 0-122.489-50.323-122.489-122.489v-172.809c0-36.090 11.389-68.376 34.176-89.261 21.843-21.843 54.129-33.245 88.313-33.245h170.913c34.181 0 66.466 11.402 88.309 33.245 21.828 21.844 34.182 54.13 34.182 89.261v171.862c0.951 36.082-9.492 66.468-32.279 88.304zM505.953 325.24c-63.619 0-114.894 52.226-114.894 114.9 0 63.612 52.222 114.891 114.894 114.891 62.681 0 115.85-50.331 115.85-114.891-0.017-64.568-52.226-114.9-115.85-114.9zM617.997 526.544c-13.305 0-24.69 9.495-24.69 24.69 0 13.292 9.499 24.681 24.69 24.681 13.296 0 24.689-11.389 24.689-24.681 0.001-13.301-10.441-24.69-24.689-24.69z" />
<glyph unicode="&#xe91d;" glyph-name="circle-facebook" d="M513.041-7.12c-246.092 0-446.303 200.218-446.303 446.303 0 246.108 200.21 446.31 446.303 446.31 246.1 0 446.303-200.202 446.303-446.31 0-246.085-200.203-446.303-446.303-446.303zM513.041 858.676c-231.304 0-419.498-188.185-419.498-419.493s188.194-419.499 419.498-419.499c231.309 0 419.497 188.19 419.497 419.499s-188.188 419.493-419.497 419.493zM548.515 550.009v-44.337h70.931l-8.865-79.795h-62.065v-195.053h-97.54v195.053h-44.333v79.795h44.333v44.337c0 0-7.978 84.235 70.931 97.532h97.539v-70.935h-44.338c-0.001 0-24.821 0.891-26.593-26.597z" />
<glyph unicode="&#xe91e;" glyph-name="plus" d="M557.785 730.259v-243.413h234.13v-62.189h-234.13v-245.506h-66.295v245.506h-234.13v62.189h234.13v243.413z" />
<glyph unicode="&#xe91f;" glyph-name="search-thin" d="M899.295 98.421l-192.834 192.834c51.722 59.48 83.039 137.062 83.039 221.867 0 186.678-151.823 338.337-338.338 338.337-186.67 0-338.333-151.838-338.333-338.337 0-186.507 151.838-338.337 338.333-338.337 84.804 0 162.394 31.317 221.866 83.047l192.826-192.834c4.578-4.563 10.733-7.025 16.72-7.025s12.134 2.276 16.721 7.025c9.14 9.14 9.14 24.283 0 33.423zM160.155 513.122c0 160.459 130.552 290.828 290.84 290.828 160.447 0 290.825-130.552 290.825-290.828 0-160.289-130.378-291.007-290.825-291.007-160.279-0.001-290.84 130.539-290.84 291.007z" />
<glyph unicode="&#xe920;" glyph-name="share-thin" d="M709.688 358.917c-32.985 0-63.96-12.834-87.251-36.117-3.79-3.798-7.359-7.863-10.653-12.19l-177.647 107.819c3.749 11.954 5.648 24.267 5.648 36.713 0 12.435-1.899 24.751-5.648 36.734l177.704 107.018c23.299-30.553 59.146-48.501 97.832-48.501 68.027 0 123.376 55.353 123.376 123.383 0 68.028-55.349 123.38-123.376 123.38-68.035 0-123.376-55.353-123.376-123.38 0-11.894 1.757-23.677 5.222-35.16l-178.164-107.303c-23.335 29.74-58.854 47.208-96.95 47.208-68.035 0-123.38-55.341-123.38-123.38 0-68.021 55.345-123.38 123.38-123.38 38.063 0 73.573 17.494 96.925 47.233l178.17-108.136c-3.447-11.557-5.204-23.372-5.204-35.271 0-33.017 12.842-64.008 36.157-87.234 23.258-23.275 54.234-36.092 87.227-36.092s63.97 12.816 87.219 36.092c23.332 23.291 36.166 54.275 36.166 87.234 0 32.937-12.834 63.921-36.149 87.22-23.258 23.276-54.242 36.11-87.228 36.11zM788.564 235.58c0-21.037-8.197-40.848-23.096-55.811-14.875-14.866-34.692-23.057-55.78-23.057-21.095 0-40.889 8.174-55.747 23.065-14.898 14.897-23.095 34.716-23.095 55.802 0 21.080 8.196 40.874 23.111 55.739 14.81 14.851 34.595 23.048 55.723 23.048 21.11 0 40.921-8.18 55.788-23.048 14.899-14.913 23.096-34.69 23.096-55.738zM395.301 455.142c0-43.479-35.392-78.854-78.896-78.854-43.479 0-78.847 35.375-78.847 78.854 0 43.512 35.367 78.904 78.847 78.904 43.504 0 78.896-35.392 78.896-78.904zM630.83 673.775c0 43.476 35.359 78.843 78.843 78.843 43.5 0 78.892-35.367 78.892-78.843 0-43.479-35.392-78.847-78.892-78.847-43.484 0.001-78.843 35.368-78.843 78.847z" />
<glyph unicode="&#xe921;" glyph-name="whatsapp-thin" d="M872.345 463.986c0-195.030-159.346-353.252-356.038-353.252-62.465 0-120.998 15.932-172.056 44.021l-197.128-62.732 64.213 189.654c-32.343 53.209-51.063 115.706-51.063 182.428 0 195.062 159.382 353.285 356.168 353.285 196.558-0.001 355.904-158.224 355.904-353.404zM516.307 761.011c-165.018 0-299.332-133.24-299.332-297.025 0-65.001 21.145-125.173 57.061-174.128l-37.425-110.308 115.028 36.636c47.367-31.074 103.951-49.192 164.668-49.192 165.025 0 299.33 133.239 299.33 296.993 0.009 163.784-134.297 297.024-299.33 297.024zM696.116 382.687c-2.196 3.61-7.945 5.798-16.736 10.052-8.652 4.398-51.615 25.307-59.594 28.169-8.067 2.904-13.834 4.416-19.623-4.367-5.766-8.668-22.535-28.056-27.707-33.927-5.074-5.799-10.166-6.481-18.825-2.236-8.792 4.407-36.958 13.515-70.219 42.964-25.988 22.997-43.545 51.29-48.633 60.072-5.053 8.661-0.438 13.268 3.814 17.529 3.932 3.932 8.779 10.169 13.191 15.256 4.371 5.079 5.761 8.661 8.66 14.423 2.867 5.798 1.476 10.876-0.707 15.142-2.192 4.404-19.635 46.998-26.906 64.327-7.271 17.322-14.548 14.427-19.627 14.427-5.090 0-10.852 0.708-16.74 0.708-5.794 0-15.249-2.098-23.234-10.877-8.067-8.661-30.594-29.565-30.594-72.167 0-42.719 31.302-83.84 35.677-89.605 4.412-5.677 60.398-96.083 149.090-130.727 88.805-34.645 88.805-23.088 104.744-21.617 16.054 1.514 51.616 20.901 58.895 41.118 7.303 20.345 7.303 37.644 5.074 41.336z" />
<glyph unicode="&#xe922;" glyph-name="whatsapp-thin-fill" d="M875.248 465.011c0-195.908-159.81-355.726-355.718-355.726-61.875 0-122.018 15.453-171.855 42.957l-197.628-61.873 63.587 190.762c-32.652 53.274-51.555 115.138-51.555 182.156 0 195.917 159.82 355.737 355.729 355.737 195.906 0.007 357.44-158.102 357.44-354.013zM698.247 382.532c-1.716 3.432-8.597 6.872-17.176 8.588-8.589 5.156-51.551 25.779-60.156 27.487-8.594 3.448-13.75 5.164-20.63-5.156-6.865-10.286-22.341-27.487-27.487-34.366-5.156-6.864-10.313-6.864-18.908-1.709s-37.815 13.744-70.458 42.957c-25.784 24.070-42.964 51.558-48.12 60.149-5.155 8.587 0 13.752 3.432 17.18 5.157 5.156 8.596 10.312 12.032 15.476 5.156 5.151 6.872 8.584 8.596 13.739 3.44 6.876 1.716 10.316 0 15.472-1.724 5.156-20.628 46.399-25.784 63.579-8.591 17.191-13.748 13.751-20.62 13.751h-17.188c-6.867 0-15.463-1.715-24.047-10.312-8.604-8.592-30.939-29.211-30.939-72.174 0-42.959 30.939-84.207 36.083-89.354 5.156-6.868 60.151-96.242 149.516-130.618 89.352-34.367 89.352-24.055 104.827-22.332 15.467 1.717 51.542 20.616 60.146 41.239 8.604 25.781 8.604 42.957 6.881 46.404z" />
<glyph unicode="&#xe923;" glyph-name="area" d="M859.511 657.609c8.727 0 15.939 7.164 16.095 15.956v112.49c0 8.869-7.222 16.098-16.095 16.098h-112.52c-8.789 0-15.907-7.229-15.907-16.098v-41.146h-436.864v41.146c0 8.71-7.153 15.936-15.956 16.098h-112.486c-8.714 0-15.931-7.237-16.082-16.143v-112.486c0-8.766 7.201-15.915 16.082-15.915h41.162v-436.845h-41.162c-8.714 0-15.931-7.155-16.082-15.964v-112.478c0-8.718 7.238-15.947 16.123-16.103h112.478c8.794 0 15.923 7.222 15.923 16.103v41.149h436.864v-41.149c0-8.718 7.142-15.947 15.956-16.103h112.471c8.727 0 15.939 7.222 16.095 16.135v112.488c0 8.782-7.222 15.922-16.095 15.922h-41.149v436.845h41.149zM181.515 770.306h80.868v-80.86h-80.868v80.86zM262.383 108.066h-80.868v80.852h80.868v-80.852zM747.008 220.764c-8.799 0-15.924-7.14-15.924-15.922v-39.524h-436.864v39.524c0 8.782-7.128 15.922-15.923 15.922h-39.539v436.845h39.539c8.794 0 15.923 7.148 15.923 15.915v39.54h436.864v-39.54c0-8.766 7.118-15.915 15.907-15.915h39.523v-436.845h-39.506zM843.783 108.066h-80.877v80.852h80.877v-80.852zM762.898 770.306h80.885v-80.86h-80.885v80.86z" />
<glyph unicode="&#xe924;" glyph-name="roofed_surface1" d="M894.626 80.726h-739.977v377.332h739.977v-377.332zM192.399 118.476h664.468v301.823h-664.468v-301.823zM894.626 420.299h-125.416v37.759h87.657v87.662h37.759zM443.115 458.058h163.042v-37.759h-163.042v37.759zM280.062 420.299h-125.413v125.421h37.75v-87.662h87.663zM192.399 672.234h-37.741v125.422h125.404v-37.759h-87.663zM443.115 797.647h163.042v-37.75h-163.042v37.75zM894.626 672.234h-37.759v87.663h-87.657v37.759h125.416zM181.705 82.573l-16.442 33.995 702.18 339.624 16.442-33.995-702.18-339.624z" />
<glyph unicode="&#xe925;" glyph-name="room_amount" d="M986.002 412.085h-1.010v48.648c0 20.509-13.328 37.945-31.757 44.166v261.983c0 8.206-6.66 14.858-14.856 14.858h-857.275c-8.206 0-14.858-6.652-14.858-14.858v-261.983c-18.427-6.221-31.752-23.657-31.752-44.158v-48.656h-1.025c-16.939 0-30.728-13.784-30.728-30.725v-127.001c0-16.949 13.788-30.733 30.728-30.733h1.025v-112.151c0-8.19 6.652-14.842 14.858-14.842h31.752c6.811 0 12.748 4.635 14.407 11.246l28.934 115.747h770.579l28.942-115.747c1.651-6.611 7.597-11.246 14.412-11.246h31.748c8.205 0 14.85 6.651 14.85 14.842v112.151h1.025c16.947 0 30.731 13.784 30.731 30.733v127.001c0.001 16.941-13.783 30.725-30.73 30.725zM69.504 126.331h-5.307v97.295h29.63l-24.323-97.295zM955.277 126.331h-5.302l-24.332 97.295h29.634v-97.295zM987.025 254.359c0-0.562-0.454-1.025-1.023-1.025h-952.533c-0.565 0-1.016 0.464-1.016 1.025v127.001c0 0.554 0.451 1.025 1.016 1.025h841.404c8.206 0 14.857 6.645 14.857 14.85 0 8.197-6.651 14.85-14.857 14.85h-810.676v48.648c0 9.315 7.587 16.903 16.907 16.903h31.752c8.193 0 14.846 6.644 14.846 14.845 0 8.206-6.652 14.858-14.846 14.858h-16.906v244.698h827.563v-244.698h-81.405v106.469c0 25.707-20.924 46.606-46.622 46.606h-222.25c-25.698 0-46.599-20.908-46.599-46.606v-106.469h-33.805v106.469c0 25.707-20.905 46.606-46.603 46.606h-222.26c-25.698 0-46.602-20.908-46.602-46.606v-106.469h-1.021c-8.205 0-14.858-6.652-14.858-14.858 0-8.201 6.653-14.845 14.858-14.845h762.024c9.319 0 16.892-7.587 16.892-16.903v-48.648h-16.892c-8.188 0-14.857-6.652-14.857-14.85 0-8.205 6.669-14.85 14.857-14.85h47.623c0.569 0 1.024-0.472 1.024-1.025v-127.001h0.008zM556.347 507.339v106.477c0 9.312 7.578 16.895 16.89 16.895h222.249c9.319 0 16.898-7.583 16.898-16.895v-106.477h-256.037zM207.083 507.339v106.477c0 9.312 7.575 16.895 16.895 16.895h222.261c9.311 0 16.899-7.583 16.899-16.895v-106.477h-256.055z" />
<glyph unicode="&#xe926;" glyph-name="starred" d="M825.672 549.733c10.354 27.317 6.637 57.979-9.961 82.011l-12.199 17.664c-5.108 7.404-8.36 16.013-9.434 24.909l-2.603 21.307c-3.513 28.988-21.046 54.414-46.907 67.979l-19.030 9.987c-7.912 4.131-14.8 10.243-19.932 17.643l-12.183 17.664c-16.598 24.051-43.955 38.408-73.149 38.408h-21.454c-8.994 0-17.923 2.196-25.859 6.368l-19.006 9.97c-25.869 13.564-56.744 13.581-82.592 0l-19.021-9.97c-7.933-4.172-16.871-6.368-25.836-6.368h-21.478c-29.215 0-56.553-14.357-73.142-38.408l-12.191-17.664c-5.099-7.375-11.999-13.471-19.953-17.643l-18.989-9.987c-25.88-13.573-43.418-38.999-46.948-67.995l-2.574-21.291c-1.090-8.913-4.355-17.521-9.434-24.901l-12.202-17.672c-16.595-24.047-20.319-54.702-9.958-82.011l7.604-20.058c3.18-8.352 4.286-17.488 3.221-26.442l-2.606-21.306c-3.521-29.008 7.445-57.878 29.305-77.241l16.081-14.232c6.729-5.961 11.951-13.54 15.114-21.924l7.611-20.055c7.596-20.005 22.177-36.628 41.081-46.777l2.912-1.569-1.249-3.074-83.84-204.521c-2.55-6.188-1.151-13.255 3.538-17.988 4.688-4.749 11.71-6.237 17.94-3.773l95.774 37.855 41.629-94.18c2.664-6.026 8.625-9.905 15.195-9.905 6.896 0.081 12.849 4.14 15.382 10.319l88.321 215.451 88.318-215.451c2.537-6.18 8.498-10.238 15.15-10.319 6.798 0 12.75 3.887 15.427 9.905l41.637 94.18 95.751-37.855c6.196-2.455 13.238-0.999 17.938 3.773 4.701 4.75 6.1 11.8 3.563 17.973l-85.080 207.61 2.911 1.569c18.892 10.149 33.481 26.756 41.085 46.777l7.604 20.063c3.196 8.416 8.418 15.979 15.118 21.915l16.069 14.232c21.858 19.362 32.823 48.232 29.31 77.241l-2.604 21.306c-1.080 8.913 0.032 18.066 3.229 26.442l7.596 20.059zM408.382 63.558l-32.31 73.111c-3.639 8.171-13 12.025-21.327 8.725l-74.325-29.382 71.418 174.203 6.803-1.66c8.686-2.129 16.838-6.407 23.584-12.377l16.081-14.231c20.628-18.306 48.498-26.332 76.798-20.494l6.77 1.399-73.492-179.294zM744.894 116.012l-74.354 29.382c-8.352 3.301-17.664-0.537-21.299-8.725l-32.317-73.111-73.484 179.278 6.773-1.392c27.285-5.635 55.992 2.058 76.795 20.494l16.069 14.23c6.749 5.971 14.898 10.24 23.583 12.37l6.815 1.676 71.419-174.202zM794.582 561.525l-7.627-20.075c-5.051-13.398-6.824-27.999-5.091-42.223l2.586-21.319c2.194-18.151-4.661-36.222-18.33-48.338l-16.070-14.231c-10.735-9.5-19.087-21.601-24.185-35.025l-7.597-20.056c-6.506-17.11-20.981-29.936-38.726-34.294l-20.827-5.139c-13.907-3.416-26.91-10.248-37.661-19.762l-16.078-14.232c-13.703-12.149-32.472-16.776-50.201-12.377l-20.834 5.139c-13.948 3.416-28.643 3.432-42.553 0l-20.827-5.139c-4.395-1.090-8.876-1.626-13.312-1.626-13.443 0-26.601 4.88-36.909 14.003l-16.074 14.232c-10.743 9.514-23.759 16.346-37.657 19.777l-20.835 5.123c-17.745 4.375-32.22 17.192-38.706 34.294l-7.62 20.063c-5.062 13.386-13.422 25.503-24.166 35.026l-16.073 14.231c-13.675 12.108-20.535 30.179-18.335 48.338l2.586 21.323c1.725 14.24-0.040 28.837-5.127 42.219l-7.596 20.066c-6.502 17.082-4.172 36.279 6.213 51.34l12.199 17.663c8.136 11.776 13.357 25.523 15.089 39.784l2.583 21.307c2.208 18.139 13.182 34.054 29.37 42.548l19.021 9.982c12.683 6.656 23.682 16.415 31.847 28.215l12.182 17.655c10.392 15.053 27.503 24.031 45.793 24.031h21.477c14.321 0 28.602 3.529 41.289 10.186l19.001 9.967c16.196 8.494 35.526 8.494 51.724 0l18.999-9.967c12.677-6.656 26.976-10.186 41.312-10.186h21.47c18.273 0 35.392-8.978 45.777-24.015l12.207-17.671c8.148-11.817 19.158-21.572 31.829-28.207l19.005-9.991c16.192-8.495 27.17-24.409 29.365-42.548l2.596-21.307c1.723-14.224 6.944-27.983 15.102-39.784l12.182-17.663c10.376-15.067 12.711-34.255 6.213-51.337zM512.65 781.472c-123.937 0-224.777-100.829-224.777-224.773 0-123.95 100.841-224.782 224.777-224.782s224.778 100.832 224.778 224.782c0.001 123.945-100.841 224.773-224.778 224.773zM512.65 366.040c-105.134 0-190.65 85.532-190.65 190.667s85.516 190.65 190.65 190.65c105.135 0 190.672-85.524 190.672-190.65 0-105.127-85.537-190.667-190.672-190.667zM611.508 605.155l-89.406 67.438c-2.782 2.098-6.104 3.147-9.451 3.147-3.321 0-6.66-1.057-9.441-3.147l-89.407-67.438c-3.904-2.94-6.246-7.628-6.246-12.516v-113.503c0-8.652 7.047-15.699 15.699-15.699h178.801c8.637 0 15.696 7.047 15.696 15.699v113.504c0 4.887-2.333 9.575-6.245 12.515zM586.379 494.807h-56.748v41.614c0 3.074-2.504 5.57-5.579 5.57h-22.778c-3.079 0-5.595-2.496-5.595-5.57v-41.614h-56.735v89.997l73.707 55.601 73.729-55.601v-89.997z" />
<glyph unicode="&#xe927;" glyph-name="bathroom" d="M907.117 332.804h-778.821c-22.612 0-39.897 17.289-39.897 39.889 0 22.607 17.285 39.897 39.897 39.897h778.821c22.607 0 39.89-17.29 39.89-39.897 0-22.6-17.282-39.889-39.89-39.889zM128.296 385.996c-7.978 0-13.3-5.325-13.3-13.304s5.322-13.288 13.3-13.288h778.821c7.979 0 13.297 5.311 13.297 13.288 0 7.979-5.318 13.304-13.297 13.304h-778.821zM764.834 120.046h-494.263c-42.548 0-79.778 29.25-90.423 70.482l-38.556 152.92c-1.33 3.984 0 7.978 2.655 11.963 2.66 2.659 6.649 3.993 10.637 3.993h725.648c3.992 0 7.979-1.334 10.629-5.335 2.651-2.651 3.985-7.97 2.651-11.963l-38.547-152.921c-10.645-39.889-47.866-69.139-90.431-69.139zM172.174 332.804l34.575-135.632c7.978-29.251 34.575-50.525 65.152-50.525h494.267c30.586 0 57.17 21.282 65.156 50.525l31.912 135.632h-691.062zM274.569 66.852c-1.334 0-3.989 0-5.323 1.334-6.644 2.651-9.303 10.629-5.314 17.281l26.601 53.193c2.655 6.636 10.633 9.304 17.277 5.327 6.656-2.668 9.311-10.646 5.322-17.29l-26.596-53.185c-2.66-3.992-6.649-6.66-11.967-6.66zM774.139 66.852c-5.319 0-9.305 2.66-11.963 7.97l-26.602 53.211c-2.651 6.643 0 14.621 5.326 17.264 6.652 2.668 14.63 0 17.282-5.302l26.593-53.193c2.658-6.653 0-14.631-5.319-17.298-1.317-2.652-2.65-2.652-5.317-2.652zM394.244 385.996h-252.651c-7.978 0-13.296 5.319-13.296 13.306 0 37.229 29.251 66.478 66.486 66.478 11.967 0 23.934-3.989 34.575-9.303 10.633 21.27 33.245 35.9 58.508 35.9 21.278 0 39.89-10.645 53.19-26.597 37.234 0 66.486-29.256 66.486-66.478-0.001-7.987-5.32-13.306-13.298-13.306zM157.548 412.59h222.070c-5.322 15.955-19.952 26.593-37.229 26.593h-3.989c-5.322-1.326-11.975 1.333-14.634 6.652-6.645 13.295-19.945 19.944-34.567 19.944-19.953 0-35.908-14.626-39.896-34.566-1.334-5.319-3.989-9.304-9.312-10.639-5.311-1.332-10.633 0-13.296 3.986-9.304 9.319-19.945 14.639-31.912 14.639-17.282-0.016-31.912-10.654-37.235-26.609zM893.813 399.285h-26.584v292.545c0 51.86-41.225 93.083-93.091 93.083-54.521 0-79.779-46.541-79.779-93.083h-26.592c0 70.482 43.882 119.679 106.371 119.679 66.49 0 119.675-53.186 119.675-119.679v-292.545zM627.87 565.506c-7.979 0-13.297 5.323-13.297 13.301v6.644c0 7.978 5.318 13.301 13.297 13.301 7.978 0 13.304-5.323 13.304-13.301v-6.644c0-7.978-5.326-13.301-13.304-13.301zM627.87 504.342c-7.979 0-13.297 5.323-13.297 13.301v14.622c0 7.978 5.318 13.296 13.297 13.296 7.978 0 13.304-5.318 13.304-13.296v-14.622c0-6.656-5.326-13.301-13.304-13.301zM627.87 452.487c-7.979 0-13.297 5.322-13.297 13.3v6.644c0 7.978 5.318 13.3 13.297 13.3 7.978 0 13.304-5.322 13.304-13.3v-6.644c0-7.986-5.326-13.3-13.304-13.3zM681.071 565.506c-7.986 0-13.304 5.323-13.304 13.301v6.644c0 7.978 5.317 13.301 13.304 13.301 7.969 0 13.288-5.323 13.288-13.301v-6.644c0-7.978-5.319-13.301-13.288-13.301zM681.071 504.342c-7.986 0-13.304 5.323-13.304 13.301v14.622c0 7.978 5.317 13.296 13.304 13.296 7.969 0 13.288-5.318 13.288-13.296v-14.622c0-6.656-5.319-13.301-13.288-13.301zM681.071 452.487c-7.986 0-13.304 5.322-13.304 13.3v6.644c0 7.978 5.317 13.3 13.304 13.3 7.969 0 13.288-5.322 13.288-13.3v-6.644c0-7.986-5.319-13.3-13.288-13.3zM734.241 565.506c-7.97 0-13.289 5.323-13.289 13.301v6.644c0 7.978 5.319 13.301 13.289 13.301 7.985 0 13.312-5.323 13.312-13.301v-6.644c0-7.978-5.326-13.301-13.312-13.301zM734.241 504.342c-7.97 0-13.289 5.323-13.289 13.301v14.622c0 7.978 5.319 13.296 13.289 13.296 7.985 0 13.312-5.318 13.312-13.296v-14.622c0-6.656-5.326-13.301-13.312-13.301zM734.241 452.487c-7.97 0-13.289 5.322-13.289 13.3v6.644c0 7.978 5.319 13.3 13.289 13.3 7.985 0 13.312-5.322 13.312-13.3v-6.644c0-7.986-5.326-13.3-13.312-13.3zM734.258 625.339h-106.388c-7.979 0-13.289 5.323-13.289 13.3 0 37.234 29.253 66.486 66.475 66.486 37.246 0 66.488-29.252 66.488-66.486 0.009-7.977-5.317-13.3-13.286-13.3zM643.834 651.948h75.8c-5.325 15.956-19.948 26.589-37.245 26.589-17.274 0-33.23-10.633-38.555-26.589z" />
<glyph unicode="&#xe928;" glyph-name="arrow-down" d="M1.428 438.31l42.594 44.492 469.409-449.502 469.398 449.502 42.599-44.492-511.997-490.273zM482.615 951.242h61.596v-960.557h-61.596v960.557z" />
<glyph unicode="&#xe929;" glyph-name="arrow-left" d="M502.091 961.64l44.495-42.597-449.503-469.408 449.503-469.399-44.495-42.597-490.272 511.996zM54.469 480.45h960.559v-61.596h-960.559v61.596z" />
<glyph unicode="&#xe92a;" glyph-name="arrow-right" d="M524.758-62.359l-44.497 42.597 449.501 469.408-449.501 469.399 44.497 42.597 490.27-511.996zM11.82 480.424h960.561v-61.593h-960.561v61.593z" />
<glyph unicode="&#xe92b;" glyph-name="arrow-up" d="M1025.428 460.971l-42.599-44.495-469.409 449.502-469.398-449.502-42.594 44.495 511.992 490.271zM482.641 908.593h61.596v-960.557h-61.596v960.557z" />
<glyph unicode="&#xe92c;" glyph-name="stumbleupon-circle" horiz-adv-x="878" d="M494.857 480.571l51.429 15.429v35.429c0 60.571-51.429 109.143-112 109.143s-112-48-112-108.571v-161.714c0-14.857-12-26.857-26.857-26.857s-26.286 12-26.286 26.857v68.571h-86.286v-69.714c0-62.286 50.286-112 112.571-112 61.143 0 112 49.143 112 110.286v160c0 14.857 12 26.857 26.857 26.857 14.286 0 26.286-12 26.286-26.857v-30.857zM685.143 369.143v69.714h-85.714v-72c0-14.857-12-26.857-26.857-26.857-14.286 0-26.286 12-26.286 26.857v70.286l-51.429-14.857-34.286 16v-70.286c0-61.143 50.857-110.857 112.571-110.857s112 49.714 112 112zM877.714 448c0-242.286-196.571-438.857-438.857-438.857s-438.857 196.571-438.857 438.857 196.571 438.857 438.857 438.857 438.857-196.571 438.857-438.857z" />
<glyph unicode="&#xe92d;" glyph-name="digg" d="M757.76 611.84v-348.16h163.84v-40.96h-163.84v-81.92h266.24v471.040h-266.24zM450.56 611.84v-348.16h163.84v-40.96h-163.84v-81.92h266.24v471.040h-266.24zM163.84 755.2v-143.36h-163.84v-348.16h266.24v491.52h-102.4zM409.6 611.84h-102.4v-348.16h102.4v348.16zM921.6 345.6h-61.44v184.32h61.44v-184.32zM163.84 345.6h-61.44v184.32h61.44v-184.32zM614.4 345.6h-61.44v184.32h61.44v-184.32zM409.6 755.2h-102.4v-102.4h102.4v102.4z" />
<glyph unicode="&#xe92e;" glyph-name="share" d="M768 320c-46.933 0-89.6-21.333-119.467-51.2l-226.133 132.267c0 17.067 4.267 29.867 4.267 46.933s-4.267 29.867-8.533 46.933l226.133 132.267c34.133-29.867 76.8-51.2 123.733-51.2 93.867 0 170.667 76.8 170.667 170.667s-76.8 170.667-170.667 170.667-170.667-76.8-170.667-170.667c0-17.067 4.267-29.867 8.533-46.933l-230.4-132.267c-29.867 29.867-72.533 51.2-119.467 51.2-93.867 0-170.667-76.8-170.667-170.667s76.8-170.667 170.667-170.667c46.933 0 89.6 21.333 119.467 51.2l226.133-132.267c0-17.067-4.267-29.867-4.267-46.933 0-93.867 76.8-170.667 170.667-170.667s170.667 76.8 170.667 170.667-76.8 170.667-170.667 170.667zM768 832c46.933 0 85.333-38.4 85.333-85.333s-38.4-85.333-85.333-85.333-85.333 38.4-85.333 85.333 38.4 85.333 85.333 85.333zM256 362.667c-46.933 0-85.333 38.4-85.333 85.333s38.4 85.333 85.333 85.333 85.333-38.4 85.333-85.333c0-46.933-38.4-85.333-85.333-85.333zM768 64c-46.933 0-85.333 38.4-85.333 85.333 0 17.067 4.267 29.867 12.8 42.667 0 0 0 0 0 0s0 0 0 0c12.8 25.6 42.667 42.667 72.533 42.667 46.933 0 85.333-38.4 85.333-85.333s-38.4-85.333-85.333-85.333z" />
<glyph unicode="&#xe92f;" glyph-name="stumbleupon" d="M512 640c-35.2 0-64-28.8-64-64v-256c0-105.8-86.2-192-192-192s-192 86.2-192 192v128h128v-128c0-35.2 28.8-64 64-64s64 28.8 64 64v256c0 105.8 86.2 192 192 192s192-86.2 192-178v-62l-82-24-46 24v62c0 21.2-28.8 50-64 50zM960 320c0-105.8-86.2-192-192-192s-192 86.2-192 206v124l46-24 82 24v-124c0-49.2 28.8-78 64-78s64 28.8 64 64v128h128v-128z" />
<glyph unicode="&#xe930;" glyph-name="google-plus-alt" d="M928 960h-832c-52.8 0-96-43.2-96-96v-832c0-52.8 43.2-96 96-96h832c52.8 0 96 43.2 96 96v832c0 52.8-43.2 96-96 96zM384 192c-141.6 0-256 114.4-256 256s114.4 256 256 256c69.2 0 127-25.2 171.6-67l-69.6-66.8c-19 18.2-52.2 39.4-102 39.4-87.4 0-158.8-72.4-158.8-161.6s71.4-161.6 158.8-161.6c101.4 0 139.4 72.8 145.2 110.4h-145.2v87.8h241.8c2.2-12.8 4-25.6 4-42.4 0-146.4-98-250.2-245.8-250.2zM896 448h-64v-64h-64v64h-64v64h64v64h64v-64h64v-64z" />
<glyph unicode="&#xe931;" glyph-name="google-plus" d="M325.8 502.6v-111.8h184.8c-7.4-48-55.8-140.6-184.8-140.6-111.2 0-202 92.2-202 205.8s90.8 205.8 202 205.8c63.4 0 105.6-27 129.8-50.2l88.4 85.2c-56.8 53-130.4 85.2-218.2 85.2-180.2-0.2-325.8-145.8-325.8-326s145.6-325.8 325.8-325.8c188 0 312.8 132.2 312.8 318.4 0 21.4-2.4 37.8-5.2 54h-307.6zM1024 512h-96v96h-96v-96h-96v-96h96v-96h96v96h96z" />
<glyph unicode="&#xe932;" glyph-name="google" d="M522.2 521.2v-175.6h290.4c-11.8-75.4-87.8-220.8-290.4-220.8-174.8 0-317.4 144.8-317.4 323.2s142.6 323.2 317.4 323.2c99.4 0 166-42.4 204-79l139 133.8c-89.2 83.6-204.8 134-343 134-283 0-512-229-512-512s229-512 512-512c295.4 0 491.6 207.8 491.6 500.2 0 33.6-3.6 59.2-8 84.8l-483.6 0.2z" />
<glyph unicode="&#xe933;" glyph-name="pinterest" d="M512 960c-282.4 0-512-229.6-512-512s229.6-512 512-512 512 229.6 512 512-229.6 512-512 512zM512 4.4c-45.8 0-89.8 7-131.4 19.8 18 29.4 45.2 77.8 55.2 116.2 5.4 20.8 27.6 105.4 27.6 105.4 14.4-27.6 56.8-51 101.6-51 133.8 0 230.2 123 230.2 276 0 146.6-119.6 256.2-273.4 256.2-191.4 0-293-128.6-293-268.4 0-65 34.6-146 90-171.8 8.4-4 12.8-2.2 14.8 6 1.4 6.2 9 36.2 12.4 50.4 1 4.4 0.6 8.4-3 12.8-18.4 22.2-33 63.2-33 101.2 0 97.8 74 192.6 200.2 192.6 109 0 185.2-74.2 185.2-180.4 0-120-60.6-203.2-139.4-203.2-43.6 0-76.2 36-65.6 80.2 12.6 52.8 36.8 109.6 36.8 147.6 0 34-18.2 62.4-56.2 62.4-44.6 0-80.2-46-80.2-107.8 0-39.2 13.2-65.8 13.2-65.8s-44-185.8-52-220.4c-9-38.4-5.4-92.2-1.6-127.2-165 64.4-282 224.8-282 412.8 0 245 198.6 443.6 443.6 443.6s443.6-198.6 443.6-443.6c0-245-198.6-443.6-443.6-443.6z" />
<glyph unicode="&#xe934;" glyph-name="pinterest-fill" d="M512 891.6c-245 0-443.6-198.6-443.6-443.6 0-188 117-348.4 282-413-3.8 35-7.4 89 1.6 127.2 8 34.6 52 220.4 52 220.4s-13.2 26.6-13.2 65.8c0 61.6 35.8 107.8 80.2 107.8 37.8 0 56.2-28.4 56.2-62.4 0-38-24.2-95-36.8-147.6-10.6-44.2 22-80.2 65.6-80.2 78.8 0 139.4 83.2 139.4 203.2 0 106.2-76.4 180.4-185.2 180.4-126.2 0-200.2-94.6-200.2-192.6 0-38.2 14.6-79 33-101.2 3.6-4.4 4.2-8.2 3-12.8-3.4-14-10.8-44.2-12.4-50.4-2-8.2-6.4-9.8-14.8-6-55.4 25.8-90 106.8-90 171.8 0 140 101.6 268.4 293 268.4 153.8 0 273.4-109.6 273.4-256.2 0-152.8-96.4-276-230.2-276-45 0-87.2 23.4-101.6 51 0 0-22.2-84.6-27.6-105.4-10-38.6-37-86.8-55.2-116.2 41.6-12.8 85.6-19.8 131.4-19.8 245 0 443.6 198.6 443.6 443.6 0 245.2-198.6 443.8-443.6 443.8z" />
<glyph unicode="&#xe935;" glyph-name="delicious" d="M0 960v-1024h1024v1024h-1024zM512 0v448h-448v448h448v-448h448v-448h-448z" />
<glyph unicode="&#xe936;" glyph-name="location" d="M512 960c-176.732 0-320-143.268-320-320 0-320 320-704 320-704s320 384 320 704c0 176.732-143.27 320-320 320zM512 448c-106.040 0-192 85.96-192 192s85.96 192 192 192 192-85.96 192-192-85.96-192-192-192z" />
<glyph unicode="&#xe937;" glyph-name="whatsapp" d="M873 811.2c-95.8 96-223.2 148.8-359 148.8-279.6 0-507.2-227.6-507.2-507.4 0-89.4 23.4-176.8 67.8-253.6l-72-263 269 70.6c74.2-40.4 157.6-61.8 242.4-61.8h0.2c0 0 0 0 0 0 279.6 0 507.4 227.6 507.4 507.4 0 135.6-52.8 263-148.6 359zM514.2 30.4v0c-75.8 0-150 20.4-214.8 58.8l-15.4 9.2-159.6-41.8 42.6 155.6-10 16c-42.4 67-64.6 144.6-64.6 224.4 0 232.6 189.2 421.8 422 421.8 112.6 0 218.6-44 298.2-123.6 79.6-79.8 123.4-185.6 123.4-298.4-0.2-232.8-189.4-422-421.8-422zM745.4 346.4c-12.6 6.4-75 37-86.6 41.2s-20 6.4-28.6-6.4c-8.4-12.6-32.8-41.2-40.2-49.8-7.4-8.4-14.8-9.6-27.4-3.2s-53.6 19.8-102 63c-37.6 33.6-63.2 75.2-70.6 87.8s-0.8 19.6 5.6 25.8c5.8 5.6 12.6 14.8 19 22.2s8.4 12.6 12.6 21.2c4.2 8.4 2.2 15.8-1 22.2s-28.6 68.8-39 94.2c-10.2 24.8-20.8 21.4-28.6 21.8-7.4 0.4-15.8 0.4-24.2 0.4s-22.2-3.2-33.8-15.8c-11.6-12.6-44.4-43.4-44.4-105.8s45.4-122.6 51.8-131.2c6.4-8.4 89.4-136.6 216.6-191.4 30.2-13 53.8-20.8 72.2-26.8 30.4-9.6 58-8.2 79.8-5 24.4 3.6 75 30.6 85.6 60.2s10.6 55 7.4 60.2c-3 5.6-11.4 8.8-24.2 15.2z" />
<glyph unicode="&#xe938;" glyph-name="youtube" d="M1013.8 652.8c0 0-10 70.6-40.8 101.6-39 40.8-82.6 41-102.6 43.4-143.2 10.4-358.2 10.4-358.2 10.4h-0.4c0 0-215 0-358.2-10.4-20-2.4-63.6-2.6-102.6-43.4-30.8-31-40.6-101.6-40.6-101.6s-10.2-82.8-10.2-165.8v-77.6c0-82.8 10.2-165.8 10.2-165.8s10-70.6 40.6-101.6c39-40.8 90.2-39.4 113-43.8 82-7.8 348.2-10.2 348.2-10.2s215.2 0.4 358.4 10.6c20 2.4 63.6 2.6 102.6 43.4 30.8 31 40.8 101.6 40.8 101.6s10.2 82.8 10.2 165.8v77.6c-0.2 82.8-10.4 165.8-10.4 165.8zM406.2 315.2v287.8l276.6-144.4-276.6-143.4z" />
<glyph unicode="&#xe939;" glyph-name="youtube-large" horiz-adv-x="2569" d="M344.012 790.601c0.209 0.865 0.344 1.479 0.388 1.8l1.042 7.559-47.349 0.267c-42.779 0.242-55.87-0.007-57.047-1.084-0.565-0.516-15.333-56.633-41.655-158.273-12.556-48.484-23.124-87.206-23.487-86.051s-15.391 56.498-33.397 122.98c-18.006 66.482-33.104 121.243-33.55 121.692-0.623 0.623-57.98 0.9-104.417 0.502-6.735-0.056-10.477 13.11 60.021-211.133 9.759-31.041 24.371-74.997 32.469-97.679 9.333-26.141 15.989-46.323 20.534-63.173 8.038-32.067 8.319-52.163 6.565-75.625-2.026-27.101-2.321-218.438-0.342-221.638 1.512-2.449 91.223-3.589 99.712-1.268 1.358 0.372 2.265 1.691 2.87 8.928 2.119 6.219 2.286 30.969 2.286 133.744v131.281l5.742 18.112c3.756 11.849 13.201 42.995 20.989 69.22 7.789 26.222 17.21 57.619 20.938 69.771 33.834 110.319 66.14 218.831 66.994 225.011l0.693 5.056zM846.122 631.349l-0.021-6.838-1.065-0.014-0.595-188.993-0.577-183.227-14.666-14.929c-16.424-16.719-29.585-23.101-41.488-20.113-12.963 3.254-12.64-1.8-13.722 214.768l-0.998 199.347h-94.316v-6.851h-1.086v-216.289c0-231.737-0.007-231.599 11.752-254.875 9.366-18.536 23.010-27.559 46.391-30.671h0.002c30.79-4.1 64.001 9.849 94.77 39.809l13.373 13.022v-22.445c0-19.396 0.554-22.601 4.070-23.58 5.756-1.605 77.173-1.707 84.89-0.126l6.396 1.314v6.628l1.086 0.223v495.098l-94.195-1.258zM606.892 533.67c-8.935 38.341-25.68 64.115-53.233 81.939-43.281 27.999-92.718 30.957-138.586 8.291-33.425-16.515-54.951-43.914-66.071-84.083-1.326-4.786-2.298-8.812-3.033-14.815-2.83-14.184-3.163-35.351-3.889-133.951-1.121-151.928 0.616-170.003 19.643-204.51 18.664-33.848 57.403-58.661 99.572-63.782 12.696-1.54 38.43 0.858 53.23 4.961 33.632 9.326 65.864 35.906 80.118 66.078 6.158 13.033 9.875 22.096 12.115 38.651 4.175 22.617 4.47 59.175 4.47 152.375-0.002 118.875-0.379 131.862-4.337 148.847zM499.34 223.997c-7.907-6.028-21.734-8.649-32.983-6.249-8.656 1.847-20.338 15.419-23.934 27.801-4.479 15.436-4.823 229.985-0.954 272.059 6.379 21.054 24.19 32.050 43.635 26.813 15.157-4.082 22.915-13.575 27.336-33.457 3.282-14.754 3.67-33.129 2.972-141.26-0.46-71.701-0.716-106.742-3.058-125.553-2.382-11.87-6.319-15.047-13.015-20.154zM2300.389 425.863h45.57l-0.726 41.281c-0.705 37.869-1.263 42.2-6.324 52.472-7.982 16.21-19.759 23.401-38.446 23.401-22.448 0-36.678-10.849-43.388-33.141-2.858-9.486-5.863-74.685-3.707-80.308 1.205-3.144 7.724-3.705 47.021-3.705zM1995.795 519.763c-6.077 12.247-17.385 18.278-30.525 17.806-10.221-0.365-21.561-4.677-32.488-13.010l-8.14-6.177v-296.598l8.14-6.177c18.429-14.052 38.674-17.031 52.619-7.703 5.519 3.691 9.117 8.779 11.919 16.861 3.647 10.524 3.965 24.003 3.489 148.772-0.495 130.043-0.781 137.702-5.014 146.226zM2560.878 653.367c-9.080 108.842-16.303 144.165-38.751 189.544-29.729 60.101-72.692 91.788-133.876 98.747-47.309 5.379-225.315 12.97-390.044 16.631-285.188 6.338-754.057-5.858-813.939-21.173-27.673-7.077-48.426-19.11-70.022-40.604-37.844-37.662-60.391-91.679-69.452-166.396-20.692-170.606-21.134-376.727-1.188-553.515 8.577-76.041 26.243-125.443 59.41-166.159 20.694-25.406 56.352-46.998 88.26-53.442 22.385-4.523 134.42-10.798 297.605-16.668 24.306-0.874 88.667-2.379 143.030-3.344 113.301-2.012 321.627-0.821 440.719 2.519 80.127 2.249 226.201 8.172 253.5 10.282 7.677 0.593 25.469 1.728 39.537 2.523 47.277 2.67 77.353 12.568 105.596 34.76 36.553 28.718 64.857 81.795 76.815 144.037 11.314 58.894 18.887 163.773 20.422 282.851 1.284 99.491-0.426 153.175-7.621 239.409zM1425.273 692.808l-52.982-0.654-2.326-565.143-45.932-0.581c-35.525-0.488-46.307 0.044-47.167 2.326-0.616 1.626-1.356 129.020-1.672 283.153l-0.581 280.246-103.493 1.307v88.304l305.829-1.235 1.307-87.069-52.982-0.654zM1750.216 368.883v-243.035h-83.725v25.583c0 19.247-0.735 25.583-2.979 25.583-1.64 0-9.226-6.344-16.861-14.098-16.557-16.817-36.171-30.367-52.91-36.63-34.662-12.968-67.589-5.4-81.618 18.75-12.838 22.11-13.082 27.052-13.082 256.335v210.547h83.653l0.654-198.265c0.623-194.821 0.714-198.393 5.377-206.333 6.182-10.521 15.608-13.347 30.597-9.231 8.817 2.423 14.836 6.707 29.143 20.931l18.024 17.952v374.946h83.725v-243.035zM2076.757 160.59c-7.372-16.424-23.806-32.509-37.283-36.485-35.167-10.382-63.375-1.923-95.935 28.708-10.103 9.505-19.51 17.224-20.931 17.224-1.712 0-2.616-7.449-2.616-22.094v-22.094h-83.725v655.845h83.725v-106.982c0-58.84 0.786-106.982 1.744-106.982s9.789 7.807 19.624 17.298c22.629 21.841 41.548 31.399 65.557 33.213 42.811 3.24 68.327-18.794 80.018-69.117 3.647-15.696 3.998-33.625 3.998-179.078-0.002-177.178-0.021-177.918-14.175-209.457zM2430.99 257.832c-0.744-18.226-2.954-39.137-4.942-46.514-11.642-43.167-42.635-73.731-87.432-86.269-60.315-16.878-126.704 10.777-153.205 63.812-14.875 29.769-15.408 35.706-15.408 181.185 0 118.617 0.419 133.171 4.214 149.354 10.747 45.788 37.392 75.422 82.49 91.865 13.068 4.765 26.708 7.207 40.337 7.486 48.672 0.998 96.984-25.18 117.229-67.808 13.659-28.76 15.35-41.060 16.717-122.099l1.235-72.678-178.497-1.235-0.654-48.84c-0.93-68.901 3.716-90.088 22.313-102.621 15.645-10.54 39.679-9.745 52.765 1.744 12.263 10.768 15.726 22.336 16.933 56.107l1.091 29.653h86.195l-1.381-33.143z" />
<glyph unicode="&#xe93a;" glyph-name="linkedin" d="M928 960h-832c-52.8 0-96-43.2-96-96v-832c0-52.8 43.2-96 96-96h832c52.8 0 96 43.2 96 96v832c0 52.8-43.2 96-96 96zM384 128h-128v448h128v-448zM320 640c-35.4 0-64 28.6-64 64s28.6 64 64 64c35.4 0 64-28.6 64-64s-28.6-64-64-64zM832 128h-128v256c0 35.4-28.6 64-64 64s-64-28.6-64-64v-256h-128v448h128v-79.4c26.4 36.2 66.8 79.4 112 79.4 79.6 0 144-71.6 144-160v-288z" />
<glyph unicode="&#xe93b;" glyph-name="instagram" d="M512 867.8c136.8 0 153-0.6 206.8-3 50-2.2 77-10.6 95-17.6 23.8-9.2 41-20.4 58.8-38.2 18-18 29-35 38.4-58.8 7-18 15.4-45.2 17.6-95 2.4-54 3-70.2 3-206.8s-0.6-153-3-206.8c-2.2-50-10.6-77-17.6-95-9.2-23.8-20.4-41-38.2-58.8-18-18-35-29-58.8-38.4-18-7-45.2-15.4-95-17.6-54-2.4-70.2-3-206.8-3s-153 0.6-206.8 3c-50 2.2-77 10.6-95 17.6-23.8 9.2-41 20.4-58.8 38.2-18 18-29 35-38.4 58.8-7 18-15.4 45.2-17.6 95-2.4 54-3 70.2-3 206.8s0.6 153 3 206.8c2.2 50 10.6 77 17.6 95 9.2 23.8 20.4 41 38.2 58.8 18 18 35 29 58.8 38.4 18 7 45.2 15.4 95 17.6 53.8 2.4 70 3 206.8 3zM512 960c-139 0-156.4-0.6-211-3-54.4-2.4-91.8-11.2-124.2-23.8-33.8-13.2-62.4-30.6-90.8-59.2-28.6-28.4-46-57-59.2-90.6-12.6-32.6-21.4-69.8-23.8-124.2-2.4-54.8-3-72.2-3-211.2s0.6-156.4 3-211c2.4-54.4 11.2-91.8 23.8-124.2 13.2-33.8 30.6-62.4 59.2-90.8 28.4-28.4 57-46 90.6-59 32.6-12.6 69.8-21.4 124.2-23.8 54.6-2.4 72-3 211-3s156.4 0.6 211 3c54.4 2.4 91.8 11.2 124.2 23.8 33.6 13 62.2 30.6 90.6 59s46 57 59 90.6c12.6 32.6 21.4 69.8 23.8 124.2 2.4 54.6 3 72 3 211s-0.6 156.4-3 211c-2.4 54.4-11.2 91.8-23.8 124.2-12.6 34-30 62.6-58.6 91-28.4 28.4-57 46-90.6 59-32.6 12.6-69.8 21.4-124.2 23.8-54.8 2.6-72.2 3.2-211.2 3.2v0zM512 711c-145.2 0-263-117.8-263-263s117.8-263 263-263 263 117.8 263 263c0 145.2-117.8 263-263 263zM512 277.4c-94.2 0-170.6 76.4-170.6 170.6s76.4 170.6 170.6 170.6c94.2 0 170.6-76.4 170.6-170.6s-76.4-170.6-170.6-170.6zM846.8 721.4c0-33.91-27.49-61.4-61.4-61.4s-61.4 27.49-61.4 61.4c0 33.91 27.49 61.4 61.4 61.4s61.4-27.49 61.4-61.4z" />
<glyph unicode="&#xe93c;" glyph-name="twitter" d="M1024 733.6c-37.6-16.8-78.2-28-120.6-33 43.4 26 76.6 67.2 92.4 116.2-40.6-24-85.6-41.6-133.4-51-38.4 40.8-93 66.2-153.4 66.2-116 0-210-94-210-210 0-16.4 1.8-32.4 5.4-47.8-174.6 8.8-329.4 92.4-433 219.6-18-31-28.4-67.2-28.4-105.6 0-72.8 37-137.2 93.4-174.8-34.4 1-66.8 10.6-95.2 26.2 0-0.8 0-1.8 0-2.6 0-101.8 72.4-186.8 168.6-206-17.6-4.8-36.2-7.4-55.4-7.4-13.6 0-26.6 1.4-39.6 3.8 26.8-83.4 104.4-144.2 196.2-146-72-56.4-162.4-90-261-90-17 0-33.6 1-50.2 3 93.2-59.8 203.6-94.4 322.2-94.4 386.4 0 597.8 320.2 597.8 597.8 0 9.2-0.2 18.2-0.6 27.2 41 29.4 76.6 66.4 104.8 108.6z" />
<glyph unicode="&#xe93d;" glyph-name="facebook" d="M608 768h160v192h-160c-123.514 0-224-100.486-224-224v-96h-128v-192h128v-512h192v512h160l32 192h-192v96c0 17.346 14.654 32 32 32z" />
<glyph unicode="&#xe93e;" glyph-name="angle-down" d="M959.835 671.707l-25.070 24.357-431.579-444.288-431.506 444.288-25.070-24.357 456.576-470.089z" />
<glyph unicode="&#xe93f;" glyph-name="angle-left" d="M726.071-7.808l24.357 25.070-444.288 431.579 444.288 431.506-24.357 25.070-470.071-456.576z" />
<glyph unicode="&#xe940;" glyph-name="angle-right" d="M280.357 905.417l-24.357-25.070 444.288-431.579-444.288-431.506 24.357-25.070 470.071 456.576z" />
<glyph unicode="&#xe941;" glyph-name="angle-up" d="M46.629 225.938l25.070-24.357 431.579 444.288 431.488-444.288 25.070 24.357-456.558 470.071z" />
</font>
</defs>
</svg>
